<?xml version="1.0" standalone="no"?>
<!DOCTYPE svg PUBLIC "-//W3C//DTD SVG 20010904//EN"
 "http://www.w3.org/TR/2001/REC-SVG-20010904/DTD/svg10.dtd">
<svg version="1.0" xmlns="http://www.w3.org/2000/svg"
 width="700.000000pt" height="700.000000pt" viewBox="0 0 700.000000 700.000000"
 preserveAspectRatio="xMidYMid meet">
<metadata>
Created by potrace 1.14, written by Peter Selinger 2001-2017
</metadata>
<g transform="translate(0.000000,700.000000) scale(0.100000,-0.100000)"
fill="#000000" stroke="none">
<path d="M347 6976 c-155 -64 -256 -195 -319 -411 l-23 -80 0 -2985 0 -2985
23 -80 c25 -87 79 -207 109 -241 10 -12 29 -36 42 -53 37 -48 148 -117 209
-130 38 -8 901 -11 3123 -11 l3070 0 61 21 c163 54 286 219 337 449 l21 95 -3
2960 c-2 1628 -5 2967 -8 2975 -3 8 -9 33 -14 55 -13 64 -64 180 -105 240 -49
71 -123 137 -190 169 l-65 31 -3105 2 -3105 3 -58 -24z m4240 -761 c55 -104
133 -251 172 -326 l71 -137 -94 -46 c-105 -51 -233 -102 -341 -134 -87 -26
-308 -81 -355 -88 -19 -3 -41 -7 -49 -10 -8 -2 -28 -7 -45 -10 -17 -3 -47 -8
-66 -13 l-35 -7 60 -18 c321 -92 545 -261 653 -491 31 -65 70 -183 78 -231 3
-22 8 -42 10 -45 5 -8 18 -156 18 -209 2 -444 -256 -832 -701 -1055 -257 -128
-579 -204 -879 -209 -63 0 -106 -6 -116 -13 -28 -24 -70 -114 -75 -163 -13
-126 47 -217 160 -243 92 -21 170 -15 417 29 80 14 158 27 174 29 15 3 35 6
45 9 9 3 36 8 61 11 25 3 52 8 60 10 16 5 46 10 120 20 25 4 56 9 70 11 79 13
363 12 455 -2 282 -42 549 -172 687 -336 24 -28 48 -56 53 -62 20 -21 85 -134
108 -187 87 -201 103 -462 42 -673 -95 -325 -353 -578 -784 -770 -148 -66
-409 -152 -518 -171 -18 -3 -44 -10 -59 -15 -15 -6 -29 -8 -31 -6 -3 3 -15 1
-27 -4 -13 -4 -38 -11 -57 -14 -19 -3 -45 -8 -59 -11 -14 -3 -41 -8 -60 -11
-19 -3 -60 -9 -90 -14 -88 -14 -165 -25 -270 -36 -91 -9 -447 -12 -515 -4
-206 25 -317 55 -450 123 -239 120 -387 328 -470 662 -25 102 -23 110 40 119
22 3 50 7 61 10 12 2 39 7 60 10 22 4 46 8 54 11 8 2 33 6 55 10 22 3 76 12
120 20 44 8 96 17 115 20 19 3 96 17 171 30 76 14 139 25 143 25 3 0 8 -17 12
-38 4 -20 16 -62 27 -92 51 -141 143 -210 317 -239 55 -9 258 -7 335 3 302 42
449 75 624 144 279 108 386 269 329 494 -27 105 -77 174 -166 224 -67 37 -130
49 -262 49 -114 0 -176 -8 -400 -51 -137 -26 -445 -75 -498 -79 -263 -21 -451
6 -627 89 -428 204 -469 754 -84 1137 l37 37 -72 27 c-407 157 -639 423 -721
830 -78 386 9 759 241 1030 129 151 256 254 427 345 123 65 277 126 412 161
118 30 126 32 255 53 436 72 792 204 1115 411 73 47 256 182 316 233 70 60 73
61 85 43 6 -9 56 -101 111 -206z"/>
<path d="M3005 5090 c-369 -78 -535 -393 -426 -810 58 -223 184 -375 368 -442
78 -29 275 -32 373 -5 227 62 368 205 405 411 13 70 13 232 0 311 -31 191
-105 352 -204 442 -112 103 -304 137 -516 93z"/>
</g>
</svg>
